# xmcd
#
# Track frame offsets: 
#        150
#        13789
#        26418
#        37321
#        51103
#        66826
#        81922
#        95519
#        111206
#        124598
#        140017
#        155858
#        171612
#        186580
#        201672
#        215946
#        230578
#        247199
#        269949
#        283468
#        300114
#        310392
#        315815
#
# Disc length: 4252 seconds
#
# Revision: 3
# Processed by: cddbd v1.5.2PL0 Copyright (c) Steve Scherf et al.
# Submitted via: ExactAudioCopy v1.0b1
#
DISCID=76109a17
DTITLE=Art Tatum - The Complete Jazz Chronicle Solo Session
DYEAR=2000
DGENRE=piano-historical
TTITLE0=Art Tatum - Wrap Your Troubles In Dreams
TTITLE1=Art Tatum - Sittin' and Rockin'
TTITLE2=Art Tatum - You're Driving Me Crazy
TTITLE3=Art Tatum - Tenderly
TTITLE4=Art Tatum - Over the Rainbow
TTITLE5=Art Tatum - In a Sentimental Mood
TTITLE6=Art Tatum - You Took Advantage Of Me
TTITLE7=Art Tatum  - It's the Talk of the Town
TTITLE8=Art Tatum - She's Funny That Way
TTITLE9=Art Tatum - I'll Never Be The Same
TTITLE10=Art Tatum - Night and Day
TTITLE11=Art Tatum - Over The Tainbow (Alt. Take 1)
TTITLE12=Art Tatum - Over The Tainbow (Alt. Take 2)
TTITLE13=Art Tatum  - It's The Talk Of The Town (Alt. Take 1)
TTITLE14=Art Tatum - I'll Never Be The Same (Alt. Take 1)
TTITLE15=Art Tatum - Night and Day (Alt. Take 1)
TTITLE16=Art Tatum - Someone To Watch Over Me
TTITLE17=Art Tatum - Smoke Gets In Your Eyes
TTITLE18=Art Tatum - Begin The Beguine
TTITLE19=Art Tatum - I Cover The Waterfront
TTITLE20=Art Tatum - Body And Soul
TTITLE21=Art Tatum - I know That You know
TTITLE22=Art Tatum - If I Should Lose You
EXTD=storyville srdc 8253 - 2000\n\n[1-16] recorded los angeles circa 
EXTD=1948\n[17-23] taped nov26 1955 nyc for radio sweden broadcast \n\n
EXTD=art tatum-piano[spoken intros tracks 17-23]\n\neac v0.95b3 secure
EXTD=flac 1.1.1 +8\n\n.
EXTT0=
EXTT1=
EXTT2=
EXTT3=
EXTT4=
EXTT5=
EXTT6=
EXTT7=
EXTT8=
EXTT9=
EXTT10=
EXTT11=
EXTT12=
EXTT13=
EXTT14=
EXTT15=
EXTT16=
EXTT17=
EXTT18=
EXTT19=
EXTT20=
EXTT21=
EXTT22=
PLAYORDER=
